<svg xmlns="http://www.w3.org/2000/svg" viewBox="0 0 79.09 104.51"><title>logo_</title><g id="logos"><path d="M10.85,78.3V88.36H9.14l-.09-1.3a2.44,2.44,0,0,1-.91,1,2.54,2.54,0,0,1-1.4.39,2.71,2.71,0,0,1-2.19-1,4.89,4.89,0,0,1,0-5.36,2.7,2.7,0,0,1,2.19-1,2.45,2.45,0,0,1,1.32.35,2.39,2.39,0,0,1,.87.94V78.3ZM8.49,86.49a2.46,2.46,0,0,0,.44-1.56v-.14a2.43,2.43,0,0,0-.44-1.54,1.43,1.43,0,0,0-1.19-.56,1.44,1.44,0,0,0-1.2.56,3.23,3.23,0,0,0,0,3.22A1.42,1.42,0,0,0,7.3,87,1.44,1.44,0,0,0,8.49,86.49Z" style="fill:#231f20"/><path d="M20.59,87.15l-.14,1.16a2,2,0,0,1-.91.19c-.9,0-1.43-.35-1.61-1a1.92,1.92,0,0,1-.95.79,4,4,0,0,1-1.53.26A2.45,2.45,0,0,1,13.86,88a1.59,1.59,0,0,1-.58-1.33c0-1.14.91-1.87,2.73-2.21l1.68-.32v-.34a1.24,1.24,0,0,0-.31-.89,1.15,1.15,0,0,0-.88-.33,1.86,1.86,0,0,0-1.05.28,1.48,1.48,0,0,0-.56.91l-1.52-.64a2.33,2.33,0,0,1,1-1.43,3.73,3.73,0,0,1,2.05-.52,3.7,3.7,0,0,1,2.34.66,2.27,2.27,0,0,1,.84,1.92v2.87a.59.59,0,0,0,.12.41.57.57,0,0,0,.39.12A2,2,0,0,0,20.59,87.15Zm-3.41-.25a.91.91,0,0,0,.51-.82v-.73l-1.5.34a1.77,1.77,0,0,0-.7.3.72.72,0,0,0,0,1,.91.91,0,0,0,.58.17A2.2,2.2,0,0,0,17.18,86.9Z" style="fill:#231f20"/><path d="M29.07,85.59H24.12a1.63,1.63,0,0,0,1.75,1.49,2,2,0,0,0,1-.23,1.23,1.23,0,0,0,.55-.64l1.57.57a2.48,2.48,0,0,1-1.13,1.28,4,4,0,0,1-2,.44,3.31,3.31,0,0,1-3.64-3.64,3.74,3.74,0,0,1,.92-2.68,3.47,3.47,0,0,1,2.61-1,3.25,3.25,0,0,1,2.49.94,3.77,3.77,0,0,1,.88,2.68A4.56,4.56,0,0,1,29.07,85.59ZM24.63,83a2.09,2.09,0,0,0-.53,1.21h3.27a2.1,2.1,0,0,0-.54-1.2,1.7,1.7,0,0,0-2.2,0Z" style="fill:#231f20"/><path d="M38.36,78.3V88.36H36.65l-.09-1.3a2.44,2.44,0,0,1-.91,1,2.54,2.54,0,0,1-1.4.39,2.71,2.71,0,0,1-2.19-1,4.89,4.89,0,0,1,0-5.36,2.7,2.7,0,0,1,2.19-1,2.45,2.45,0,0,1,1.32.35,2.39,2.39,0,0,1,.87.94V78.3ZM36,86.49a2.46,2.46,0,0,0,.44-1.56v-.14A2.43,2.43,0,0,0,36,83.25a1.43,1.43,0,0,0-1.19-.56,1.44,1.44,0,0,0-1.2.56,3.23,3.23,0,0,0,0,3.22,1.42,1.42,0,0,0,1.2.56A1.44,1.44,0,0,0,36,86.49Z" style="fill:#231f20"/><path d="M48.1,87.15,48,88.31a2,2,0,0,1-.91.19c-.9,0-1.43-.35-1.61-1a1.92,1.92,0,0,1-.95.79A4,4,0,0,1,43,88.5a2.5,2.5,0,0,1-1.6-.46,1.61,1.61,0,0,1-.57-1.33c0-1.14.91-1.87,2.73-2.21l1.68-.32v-.34a1.24,1.24,0,0,0-.31-.89,1.17,1.17,0,0,0-.88-.33,1.86,1.86,0,0,0-1,.28,1.48,1.48,0,0,0-.56.91l-1.52-.64a2.29,2.29,0,0,1,1-1.43,3.73,3.73,0,0,1,2-.52,3.65,3.65,0,0,1,2.33.66,2.25,2.25,0,0,1,.85,1.92v2.87a.59.59,0,0,0,.12.41.55.55,0,0,0,.39.12A2,2,0,0,0,48.1,87.15Zm-3.41-.25a.91.91,0,0,0,.51-.82v-.73l-1.5.34a1.77,1.77,0,0,0-.7.3.7.7,0,0,0,0,1,.89.89,0,0,0,.58.17A2.2,2.2,0,0,0,44.69,86.9Z" style="fill:#231f20"/><path d="M52,86.14a1.21,1.21,0,0,0,.15.7.64.64,0,0,0,.54.19,2.46,2.46,0,0,0,.41,0,2.23,2.23,0,0,0,.41-.12l-.17,1.33a1.76,1.76,0,0,1-.58.22,3.58,3.58,0,0,1-.72.07A2,2,0,0,1,50.54,88a2.27,2.27,0,0,1-.47-1.59V78.3H52Z" style="fill:#231f20"/><path d="M62.06,81.36v7H60.35l-.07-1.2a2.49,2.49,0,0,1-2.45,1.34,2.58,2.58,0,0,1-1.8-.6,2.48,2.48,0,0,1-.67-1.9V81.36h1.92v4.15a1.74,1.74,0,0,0,.31,1.15,1.19,1.19,0,0,0,.91.33,1.53,1.53,0,0,0,1.18-.47,1.91,1.91,0,0,0,.46-1.4V81.36Z" style="fill:#231f20"/><path d="M64.38,87.16,65.5,86a1.68,1.68,0,0,0,.81.85,3.1,3.1,0,0,0,1.29.24,2.2,2.2,0,0,0,1-.16.52.52,0,0,0,.34-.47c0-.15-.11-.29-.32-.4a4.32,4.32,0,0,0-1.08-.32,5.5,5.5,0,0,1-2.26-.85,1.71,1.71,0,0,1-.65-1.42,1.93,1.93,0,0,1,.36-1.11A2.52,2.52,0,0,1,66,81.54a4.21,4.21,0,0,1,1.71-.32,4.29,4.29,0,0,1,1.9.36,3,3,0,0,1,1.22,1.13l-1.19,1a2.13,2.13,0,0,0-.76-.83,2.24,2.24,0,0,0-1.14-.27,1.85,1.85,0,0,0-.92.2.56.56,0,0,0-.34.48.58.58,0,0,0,.33.49,4.24,4.24,0,0,0,1.19.36,5.25,5.25,0,0,1,2.16.81,1.63,1.63,0,0,1,.64,1.37A1.86,1.86,0,0,1,70,87.91a4,4,0,0,1-2.36.59A3.63,3.63,0,0,1,64.38,87.16Z" style="fill:#231f20"/><path d="M75,86.53a1.08,1.08,0,0,1,.33.83,1.06,1.06,0,0,1-.33.82,1.22,1.22,0,0,1-.89.31,1.28,1.28,0,0,1-.89-.3,1.22,1.22,0,0,1,0-1.67,1.45,1.45,0,0,1,1.78,0Z" style="fill:#231f20"/><path d="M3.85,95.33c0-.69.39-1,1.19-1s1.19.34,1.19,1-.4,1-1.19,1S3.85,96,3.85,95.33Zm2.14,9H4.07v-7H6Z" style="fill:#231f20"/><path d="M14.86,97.88a2.49,2.49,0,0,1,.69,1.89v4.6H13.63v-4c0-1.06-.41-1.59-1.24-1.59a1.59,1.59,0,0,0-1.15.47,2,2,0,0,0-.46,1.46v3.7H8.86v-7h1.72l.06,1.24a2.42,2.42,0,0,1,1-1A2.88,2.88,0,0,1,13,97.22,2.55,2.55,0,0,1,14.86,97.88Z" style="fill:#231f20"/><path d="M25.14,94.3v10.07H23.43l-.08-1.31a2.46,2.46,0,0,1-.92,1,2.54,2.54,0,0,1-1.39.4,2.7,2.7,0,0,1-2.2-1,4.89,4.89,0,0,1,0-5.36,2.7,2.7,0,0,1,2.2-1,2.44,2.44,0,0,1,1.31.35,2.26,2.26,0,0,1,.87.94V94.3Zm-2.35,8.19a2.46,2.46,0,0,0,.43-1.56v-.13a2.44,2.44,0,0,0-.43-1.55,1.57,1.57,0,0,0-2.4,0,2.57,2.57,0,0,0-.43,1.61,2.54,2.54,0,0,0,.43,1.6,1.42,1.42,0,0,0,1.21.56A1.45,1.45,0,0,0,22.79,102.49Z" style="fill:#231f20"/><path d="M34.66,97.37v7H33l-.07-1.21a2.49,2.49,0,0,1-2.45,1.35,2.61,2.61,0,0,1-1.8-.61A2.48,2.48,0,0,1,28,102V97.37h1.92v4.14a1.74,1.74,0,0,0,.3,1.15,1.19,1.19,0,0,0,.91.33,1.57,1.57,0,0,0,1.19-.47,2,2,0,0,0,.45-1.4V97.37Z" style="fill:#231f20"/><path d="M37,103.16,38.1,102a1.68,1.68,0,0,0,.81.85,3.09,3.09,0,0,0,1.29.25,2.26,2.26,0,0,0,1-.17.53.53,0,0,0,.33-.47c0-.15-.1-.29-.31-.4a4.43,4.43,0,0,0-1.09-.32,5.5,5.5,0,0,1-2.26-.85,1.73,1.73,0,0,1-.65-1.42,1.93,1.93,0,0,1,.36-1.11,2.65,2.65,0,0,1,1.08-.83,4.24,4.24,0,0,1,1.71-.32,4.29,4.29,0,0,1,1.9.36,3.06,3.06,0,0,1,1.22,1.13l-1.19,1a2.06,2.06,0,0,0-.76-.83,2.24,2.24,0,0,0-1.14-.27,1.85,1.85,0,0,0-.92.2.56.56,0,0,0-.34.48.58.58,0,0,0,.33.49,4.24,4.24,0,0,0,1.19.36,5.52,5.52,0,0,1,2.17.81,1.65,1.65,0,0,1,.63,1.37,1.84,1.84,0,0,1-.83,1.58,4,4,0,0,1-2.36.6A3.64,3.64,0,0,1,37,103.16Z" style="fill:#231f20"/><path d="M50.59,103.93a2.42,2.42,0,0,1-.85.42,3.74,3.74,0,0,1-1.07.16c-1.56,0-2.33-.71-2.33-2.12v-3.6H45.06V97.37h1.28V95.76l1.91-.54v2.15h2.27v1.42H48.25v3.29a.86.86,0,0,0,1,1,1.63,1.63,0,0,0,1.08-.39Z" style="fill:#231f20"/><path d="M57.35,97.38l-.24,1.68a1.57,1.57,0,0,0-.88-.21,1.59,1.59,0,0,0-1.18.5,1.88,1.88,0,0,0-.5,1.39v3.63H52.64v-7H54.3l.13,1.37a2.14,2.14,0,0,1,2.17-1.52A1.52,1.52,0,0,1,57.35,97.38Z" style="fill:#231f20"/><path d="M59.16,95.33c0-.69.4-1,1.19-1s1.19.34,1.19,1-.4,1-1.19,1S59.16,96,59.16,95.33Zm2.14,9H59.38v-7H61.3Z" style="fill:#231f20"/><path d="M70.65,101.59h-5a1.63,1.63,0,0,0,1.75,1.49,2,2,0,0,0,1-.23,1.23,1.23,0,0,0,.55-.64l1.56.57a2.47,2.47,0,0,1-1.12,1.28,4,4,0,0,1-2,.45,3.32,3.32,0,0,1-3.64-3.64,3.71,3.71,0,0,1,.92-2.69,3.44,3.44,0,0,1,2.6-1,3.26,3.26,0,0,1,2.5.94,3.77,3.77,0,0,1,.88,2.68A4.56,4.56,0,0,1,70.65,101.59Zm-4.44-2.54a2,2,0,0,0-.53,1.2h3.26a2,2,0,0,0-.53-1.2,1.5,1.5,0,0,0-1.09-.41A1.46,1.46,0,0,0,66.21,99.05Z" style="fill:#231f20"/><path d="M72.63,103.16,73.75,102a1.63,1.63,0,0,0,.8.85,3.1,3.1,0,0,0,1.3.25,2.21,2.21,0,0,0,1-.17.53.53,0,0,0,.33-.47c0-.15-.1-.29-.31-.4a4.29,4.29,0,0,0-1.09-.32,5.56,5.56,0,0,1-2.26-.85,1.73,1.73,0,0,1-.65-1.42,1.87,1.87,0,0,1,.37-1.11,2.55,2.55,0,0,1,1.07-.83A4.24,4.24,0,0,1,76,97.22a4.34,4.34,0,0,1,1.91.36,3,3,0,0,1,1.21,1.13l-1.19,1a2.06,2.06,0,0,0-.76-.83A2.19,2.19,0,0,0,76,98.62a1.87,1.87,0,0,0-.92.2.56.56,0,0,0-.34.48.57.57,0,0,0,.34.49,4.13,4.13,0,0,0,1.19.36,5.53,5.53,0,0,1,2.16.81,1.66,1.66,0,0,1,.64,1.37,1.85,1.85,0,0,1-.84,1.58,4,4,0,0,1-2.36.6A3.62,3.62,0,0,1,72.63,103.16Z" style="fill:#231f20"/><path d="M16.64,68v-1.9h3.52V61.43a1,1,0,0,0-1-1h-.14A3.46,3.46,0,0,1,15.59,57V47.74a5.57,5.57,0,0,1,1.55-3.86l.37-.36.14-8.18-6.4,6.41.9.9a5.28,5.28,0,0,1-7.46,7.46l-.9-.9L2.14,50.85.8,49.51l1.64-1.64-.9-.9A5.28,5.28,0,1,1,9,39.51l.9.89,3.88-3.88L10.9,33.68,10.6,33V22.07a5.14,5.14,0,0,1,5-5.43h5.67l-1.89-5.32c-.73-.27-2.92-1.14-2.92-3.53a6.67,6.67,0,0,1,1.34-3.43A8,8,0,0,0,19.44.21L21.34,0,22.7,6h4.82l1.36-6,1.9.21a7.84,7.84,0,0,0,1.56,4.11,6.72,6.72,0,0,1,1.37,3.47,3.75,3.75,0,0,1-2.86,3.46l-2,5.39h4.72l4-4L48.32,2l1.34,1.34-1.8,1.8a3,3,0,0,0,0,4.3,3,3,0,0,0,4.23.07l1.34,1.35L44.7,19.58l-1.35-1.34A3,3,0,0,0,43.28,14a3,3,0,0,0-2.15-.89A3,3,0,0,0,39,14l-2.82,2.82.17.05A5,5,0,0,1,40,21.68V32.14l-1.25.94-4.37-1-1.42,1.35,0,3.72,3.39,2.84A7.92,7.92,0,0,1,39.17,46v8.17l.08,0a3.23,3.23,0,0,1,2.56,3.14V67l-1,.95H31.11v-1.9h3.37V61.43a1,1,0,0,0-1-1h-.14A3.46,3.46,0,0,1,29.91,57V51.36a1,1,0,0,0-1-1H27.69a14.79,14.79,0,0,1-2.87-.27l-.12,0v4.11l.08,0a3.22,3.22,0,0,1,2.55,3.14V67l-1,1Zm2.8-24c1.45,3,4.22,4.47,8.25,4.47h1.24a2.87,2.87,0,0,1,2.88,2.87V57a1.56,1.56,0,0,0,1.56,1.56h.14a2.88,2.88,0,0,1,2.87,2.88v4.66h3.53V57.37a1.32,1.32,0,0,0-1.32-1.31h-.37l-1-1,0-9a6,6,0,0,0-2.18-4.63L32,38.88l-2.93,3-.72.28H23.11l-.71-.31-2.89-2.94Zm-1.38,1.75a3.62,3.62,0,0,0-.57,2V57a1.56,1.56,0,0,0,1.56,1.56h.14a2.87,2.87,0,0,1,2.87,2.88v4.66h3.37V57.37a1.31,1.31,0,0,0-1.31-1.31h-.37l-1-1,0-5.49-.06,0a9.12,9.12,0,0,1-4.52-3.75l-.08-.13ZM5.13,47.87l.9.9A3.38,3.38,0,0,0,10.8,44l-.9-.9Zm.14-8a3.32,3.32,0,0,0-2.38,1,3.37,3.37,0,0,0,0,4.77l.9.9,4.77-4.77-.9-.9A3.34,3.34,0,0,0,5.27,39.86Zm14.34-6.47-.07,2.78,3.93,4,4.52,0,3-3L31,33l.3-.71.82-.8-8.63-2ZM15.48,18.56a3.23,3.23,0,0,0-3,3.51v10.5l2.62,2.61L17.28,33l-1.41-1.39-.29-.71V18.55Zm2,12,1.14,1.16L31.76,18.54H28.23l0,.08-1,.65-4.34,0L22,18.57l-4.49,0ZM35,30.22l3.11.72V21.68a3.14,3.14,0,0,0-3-3.12H35Zm-9.89-2.31,8,1.87,0-9.89ZM20.16,4.2c-.22.4-.45.78-.67,1.13a5.29,5.29,0,0,0-1.08,2.46c0,1.38,1.68,1.7,1.87,1.73l.79.67,2.52,7.16h3l2.55-7.21L30,9.5c.15,0,1.83-.33,1.83-1.71a5.22,5.22,0,0,0-1.06-2.43c-.25-.38-.47-.76-.69-1.16L29.93,4,29.2,7.14l-1,.75-6.28,0-1-.79L20.29,4Zm21.58,7.05.19,0A5,5,0,0,1,46,15.36l0,.2,3.37-3.37-.2,0a4.93,4.93,0,0,1-4.08-4.08l0-.19Z" style="fill:#231f20"/></g></svg>