<svg xmlns="http://www.w3.org/2000/svg" viewBox="0 0 53.43 68.02"><title>logo_</title><g id="logos"><path d="M16.64,68v-1.9h3.52V61.43a1,1,0,0,0-1-1h-.14A3.46,3.46,0,0,1,15.59,57V47.74a5.57,5.57,0,0,1,1.55-3.86l.37-.36.14-8.18-6.4,6.41.9.9a5.28,5.28,0,0,1-7.46,7.46l-.9-.9L2.14,50.85.8,49.51l1.64-1.64-.9-.9A5.28,5.28,0,1,1,9,39.51l.9.89,3.88-3.88L10.9,33.68,10.6,33V22.07a5.14,5.14,0,0,1,5-5.43h5.67l-1.89-5.32c-.73-.27-2.92-1.14-2.92-3.53a6.67,6.67,0,0,1,1.34-3.43A8,8,0,0,0,19.44.21L21.34,0,22.7,6h4.82l1.36-6,1.9.21a7.84,7.84,0,0,0,1.56,4.11,6.72,6.72,0,0,1,1.37,3.47,3.75,3.75,0,0,1-2.86,3.46l-2,5.39h4.72l4-4L48.32,2l1.34,1.34-1.8,1.8a3,3,0,0,0,0,4.3,3,3,0,0,0,4.23.07l1.34,1.35L44.7,19.58l-1.35-1.34A3,3,0,0,0,43.28,14a3,3,0,0,0-2.15-.89A3,3,0,0,0,39,14l-2.82,2.82.17.05A5,5,0,0,1,40,21.68V32.14l-1.25.94-4.37-1-1.42,1.35,0,3.72,3.39,2.84A7.92,7.92,0,0,1,39.17,46v8.17l.08,0a3.23,3.23,0,0,1,2.56,3.14V67l-1,.95H31.11v-1.9h3.37V61.43a1,1,0,0,0-1-1h-.14A3.46,3.46,0,0,1,29.91,57V51.36a1,1,0,0,0-1-1H27.69a14.79,14.79,0,0,1-2.87-.27l-.12,0v4.11l.08,0a3.22,3.22,0,0,1,2.55,3.14V67l-1,1Zm2.8-24c1.45,3,4.22,4.47,8.25,4.47h1.24a2.87,2.87,0,0,1,2.88,2.87V57a1.56,1.56,0,0,0,1.56,1.56h.14a2.88,2.88,0,0,1,2.87,2.88v4.66h3.53V57.37a1.32,1.32,0,0,0-1.32-1.31h-.37l-1-1,0-9a6,6,0,0,0-2.18-4.63L32,38.88l-2.93,3-.72.28H23.11l-.71-.31-2.89-2.94Zm-1.38,1.75a3.62,3.62,0,0,0-.57,2V57a1.56,1.56,0,0,0,1.56,1.56h.14a2.87,2.87,0,0,1,2.87,2.88v4.66h3.37V57.37a1.31,1.31,0,0,0-1.31-1.31h-.37l-1-1,0-5.49-.06,0a9.12,9.12,0,0,1-4.52-3.75l-.08-.13ZM5.13,47.87l.9.9A3.38,3.38,0,0,0,10.8,44l-.9-.9Zm.14-8a3.32,3.32,0,0,0-2.38,1,3.37,3.37,0,0,0,0,4.77l.9.9,4.77-4.77-.9-.9A3.34,3.34,0,0,0,5.27,39.86Zm14.34-6.47-.07,2.78,3.93,4,4.52,0,3-3L31,33l.3-.71.82-.8-8.63-2ZM15.48,18.56a3.23,3.23,0,0,0-3,3.51v10.5l2.62,2.61L17.28,33l-1.41-1.39-.29-.71V18.55Zm2,12,1.14,1.16L31.76,18.54H28.23l0,.08-1,.65-4.34,0L22,18.57l-4.49,0ZM35,30.22l3.11.72V21.68a3.14,3.14,0,0,0-3-3.12H35Zm-9.89-2.31,8,1.87,0-9.89ZM20.16,4.2c-.22.4-.45.78-.67,1.13a5.29,5.29,0,0,0-1.08,2.46c0,1.38,1.68,1.7,1.87,1.73l.79.67,2.52,7.16h3l2.55-7.21L30,9.5c.15,0,1.83-.33,1.83-1.71a5.22,5.22,0,0,0-1.06-2.43c-.25-.38-.47-.76-.69-1.16L29.93,4,29.2,7.14l-1,.75-6.28,0-1-.79L20.29,4Zm21.58,7.05.19,0A5,5,0,0,1,46,15.36l0,.2,3.37-3.37-.2,0a4.93,4.93,0,0,1-4.08-4.08l0-.19Z" style="fill:#fff"/></g></svg>