<svg xmlns="http://www.w3.org/2000/svg" viewBox="0 0 125.48 68.02"><title>logo_</title><g id="logos"><path d="M57.23,23.88V34H55.52l-.08-1.3a2.46,2.46,0,0,1-.92,1.05,2.51,2.51,0,0,1-1.39.39,2.71,2.71,0,0,1-2.2-1,4.07,4.07,0,0,1-.8-2.67,4.13,4.13,0,0,1,.8-2.69,2.71,2.71,0,0,1,2.2-1,2.5,2.5,0,0,1,1.32.34,2.32,2.32,0,0,1,.86,1V23.88Zm-2.35,8.19a2.42,2.42,0,0,0,.43-1.55v-.14a2.46,2.46,0,0,0-.43-1.55,1.56,1.56,0,0,0-2.39,0,2.57,2.57,0,0,0-.44,1.61,2.57,2.57,0,0,0,.44,1.61,1.56,1.56,0,0,0,2.39,0Z" style="fill:#fff"/><path d="M67,32.73l-.14,1.16a2,2,0,0,1-.91.2c-.9,0-1.44-.35-1.61-1.05a1.93,1.93,0,0,1-1,.78,3.9,3.9,0,0,1-1.52.27,2.5,2.5,0,0,1-1.6-.46,1.61,1.61,0,0,1-.57-1.33c0-1.14.91-1.88,2.73-2.21l1.68-.33v-.33a1.23,1.23,0,0,0-.32-.89,1.15,1.15,0,0,0-.87-.33,1.78,1.78,0,0,0-1,.28,1.48,1.48,0,0,0-.56.91l-1.53-.64a2.32,2.32,0,0,1,1-1.43,3.59,3.59,0,0,1,2-.52,3.76,3.76,0,0,1,2.34.65A2.29,2.29,0,0,1,66,29.39v2.87a.52.52,0,0,0,.13.4.5.5,0,0,0,.39.13A1.56,1.56,0,0,0,67,32.73Zm-3.41-.24a.92.92,0,0,0,.51-.82v-.73l-1.5.33a1.82,1.82,0,0,0-.71.31.64.64,0,0,0-.23.52.62.62,0,0,0,.21.51.89.89,0,0,0,.59.18A2.2,2.2,0,0,0,63.57,32.49Z" style="fill:#fff"/><path d="M75.46,31.18h-5a1.63,1.63,0,0,0,1.75,1.48,2,2,0,0,0,1-.22,1.19,1.19,0,0,0,.54-.65l1.57.58a2.5,2.5,0,0,1-1.12,1.28,4.1,4.1,0,0,1-2,.44,3.33,3.33,0,0,1-3.64-3.64,3.69,3.69,0,0,1,.93-2.68,3.43,3.43,0,0,1,2.6-1,3.22,3.22,0,0,1,2.5.94,3.77,3.77,0,0,1,.88,2.67A4.77,4.77,0,0,1,75.46,31.18ZM71,28.63a2.09,2.09,0,0,0-.52,1.2h3.26a2,2,0,0,0-.53-1.19,1.47,1.47,0,0,0-1.09-.42A1.54,1.54,0,0,0,71,28.63Z" style="fill:#fff"/><path d="M84.74,23.88V34H83L83,32.65A2.46,2.46,0,0,1,82,33.7a2.51,2.51,0,0,1-1.39.39,2.71,2.71,0,0,1-2.2-1,4.07,4.07,0,0,1-.8-2.67,4.13,4.13,0,0,1,.8-2.69,2.71,2.71,0,0,1,2.2-1,2.5,2.5,0,0,1,1.32.34,2.32,2.32,0,0,1,.86,1V23.88Zm-2.35,8.19a2.42,2.42,0,0,0,.43-1.55v-.14a2.46,2.46,0,0,0-.43-1.55,1.56,1.56,0,0,0-2.39,0,2.57,2.57,0,0,0-.44,1.61A2.57,2.57,0,0,0,80,32.06a1.56,1.56,0,0,0,2.39,0Z" style="fill:#fff"/><path d="M94.49,32.73l-.14,1.16a2.06,2.06,0,0,1-.91.2c-.9,0-1.44-.35-1.61-1.05a1.93,1.93,0,0,1-1,.78,3.9,3.9,0,0,1-1.52.27,2.48,2.48,0,0,1-1.6-.46,1.61,1.61,0,0,1-.57-1.33c0-1.14.91-1.88,2.73-2.21l1.68-.33v-.33a1.23,1.23,0,0,0-.32-.89,1.15,1.15,0,0,0-.87-.33,1.78,1.78,0,0,0-1.05.28,1.48,1.48,0,0,0-.56.91l-1.53-.64a2.32,2.32,0,0,1,1-1.43,3.59,3.59,0,0,1,2-.52,3.76,3.76,0,0,1,2.34.65,2.29,2.29,0,0,1,.84,1.93v2.87a.52.52,0,0,0,.13.4.5.5,0,0,0,.39.13A1.61,1.61,0,0,0,94.49,32.73Zm-3.41-.24a.92.92,0,0,0,.51-.82v-.73l-1.5.33a1.82,1.82,0,0,0-.71.31.64.64,0,0,0-.23.52.62.62,0,0,0,.21.51.89.89,0,0,0,.59.18A2.2,2.2,0,0,0,91.08,32.49Z" style="fill:#fff"/><path d="M98.38,31.72a1.29,1.29,0,0,0,.14.7.65.65,0,0,0,.54.2,1.76,1.76,0,0,0,.42,0,2.48,2.48,0,0,0,.41-.12l-.17,1.34a1.83,1.83,0,0,1-.59.21,3.51,3.51,0,0,1-.71.08,2,2,0,0,1-1.49-.5A2.27,2.27,0,0,1,96.46,32V23.88h1.92Z" style="fill:#fff"/><path d="M108.44,27v7h-1.7l-.07-1.2a2.5,2.5,0,0,1-2.45,1.34,2.53,2.53,0,0,1-1.8-.61,2.44,2.44,0,0,1-.67-1.9V27h1.92v4.14a1.67,1.67,0,0,0,.31,1.15,1.18,1.18,0,0,0,.91.34,1.58,1.58,0,0,0,1.18-.47,2,2,0,0,0,.46-1.41V27Z" style="fill:#fff"/><path d="M110.77,32.75l1.12-1.15a1.61,1.61,0,0,0,.8.84,3,3,0,0,0,1.3.25,2.18,2.18,0,0,0,1-.17.51.51,0,0,0,.34-.46c0-.16-.11-.3-.32-.41a4.32,4.32,0,0,0-1.08-.32,5.42,5.42,0,0,1-2.27-.85,1.73,1.73,0,0,1-.65-1.42,1.82,1.82,0,0,1,.37-1.1,2.46,2.46,0,0,1,1.08-.84,4.16,4.16,0,0,1,1.7-.31,4.34,4.34,0,0,1,1.91.36,3,3,0,0,1,1.22,1.12l-1.19,1a2.14,2.14,0,0,0-.77-.83,2.29,2.29,0,0,0-1.14-.26,1.77,1.77,0,0,0-.92.2.51.51,0,0,0,0,1,4.4,4.4,0,0,0,1.19.37,5.33,5.33,0,0,1,2.16.8,1.66,1.66,0,0,1,.64,1.38,1.83,1.83,0,0,1-.84,1.57,4,4,0,0,1-2.35.6A3.65,3.65,0,0,1,110.77,32.75Z" style="fill:#fff"/><path d="M121.43,32.11a1.1,1.1,0,0,1,.33.83,1.08,1.08,0,0,1-.33.83,1.47,1.47,0,0,1-1.78,0,1.06,1.06,0,0,1-.33-.83,1.07,1.07,0,0,1,.33-.83,1.47,1.47,0,0,1,1.78,0Z" style="fill:#fff"/><path d="M50.23,40.92c0-.69.4-1,1.19-1s1.19.35,1.19,1-.39,1-1.19,1S50.23,41.6,50.23,40.92Zm2.14,9H50.46V43h1.91Z" style="fill:#fff"/><path d="M61.24,43.47a2.46,2.46,0,0,1,.7,1.89V50H60v-4c0-1.07-.42-1.6-1.25-1.6a1.53,1.53,0,0,0-1.14.48,2,2,0,0,0-.47,1.45V50H55.24V43H57L57,44.2a2.45,2.45,0,0,1,1-1,2.88,2.88,0,0,1,1.43-.35A2.53,2.53,0,0,1,61.24,43.47Z" style="fill:#fff"/><path d="M71.53,39.88V50H69.82l-.09-1.3a2.44,2.44,0,0,1-.91,1.05,2.54,2.54,0,0,1-1.4.39,2.69,2.69,0,0,1-2.19-1,4,4,0,0,1-.8-2.67,4,4,0,0,1,.8-2.68,2.67,2.67,0,0,1,2.19-1,2.45,2.45,0,0,1,1.32.34,2.42,2.42,0,0,1,.87,1V39.88Zm-2.36,8.19a2.42,2.42,0,0,0,.44-1.55v-.14a2.46,2.46,0,0,0-.44-1.55A1.42,1.42,0,0,0,68,44.28a1.44,1.44,0,0,0-1.2.56,3.23,3.23,0,0,0,0,3.22,1.44,1.44,0,0,0,1.2.56A1.42,1.42,0,0,0,69.17,48.07Z" style="fill:#fff"/><path d="M81.05,43v7H79.34l-.07-1.2a2.5,2.5,0,0,1-2.45,1.34,2.53,2.53,0,0,1-1.8-.61,2.48,2.48,0,0,1-.67-1.9V43h1.92v4.14a1.65,1.65,0,0,0,.31,1.15,1.16,1.16,0,0,0,.91.34,1.58,1.58,0,0,0,1.18-.47,1.92,1.92,0,0,0,.46-1.41V43Z" style="fill:#fff"/><path d="M83.37,48.75l1.12-1.15a1.64,1.64,0,0,0,.8.84,3,3,0,0,0,1.3.25,2.18,2.18,0,0,0,1-.17.5.5,0,0,0,.34-.46c0-.16-.11-.29-.32-.41a4.32,4.32,0,0,0-1.08-.32,5.31,5.31,0,0,1-2.26-.85,1.71,1.71,0,0,1-.65-1.42,1.88,1.88,0,0,1,.36-1.1A2.46,2.46,0,0,1,85,43.12a5,5,0,0,1,3.61.05,3.1,3.1,0,0,1,1.22,1.12l-1.19,1a2,2,0,0,0-.77-.82,2.19,2.19,0,0,0-1.14-.27,1.83,1.83,0,0,0-.91.2.57.57,0,0,0-.35.47.58.58,0,0,0,.34.49,4.4,4.4,0,0,0,1.19.37,5.27,5.27,0,0,1,2.16.8,1.64,1.64,0,0,1,.64,1.38A1.84,1.84,0,0,1,89,49.49a4,4,0,0,1-2.36.6A3.66,3.66,0,0,1,83.37,48.75Z" style="fill:#fff"/><path d="M97,49.52a2.93,2.93,0,0,1-.85.42,3.79,3.79,0,0,1-1.07.15c-1.56,0-2.34-.7-2.34-2.11v-3.6H91.45V43h1.27V41.34l1.92-.53V43h2.27v1.43H94.64v3.29a.85.85,0,0,0,1,1,1.59,1.59,0,0,0,1.07-.39Z" style="fill:#fff"/><path d="M103.74,43l-.24,1.68a1.59,1.59,0,0,0-.88-.21,1.61,1.61,0,0,0-1.18.5,1.89,1.89,0,0,0-.5,1.39V50H99V43h1.67l.12,1.37A2.15,2.15,0,0,1,103,42.81,1.57,1.57,0,0,1,103.74,43Z" style="fill:#fff"/><path d="M105.55,40.92c0-.69.39-1,1.19-1s1.18.35,1.18,1-.39,1-1.18,1S105.55,41.6,105.55,40.92Zm2.14,9h-1.92V43h1.92Z" style="fill:#fff"/><path d="M117,47.18h-5a1.63,1.63,0,0,0,1.75,1.48,2,2,0,0,0,1-.22,1.19,1.19,0,0,0,.54-.65l1.57.58a2.44,2.44,0,0,1-1.13,1.28,4,4,0,0,1-2,.44,3.33,3.33,0,0,1-3.64-3.64,3.69,3.69,0,0,1,.93-2.68,3.43,3.43,0,0,1,2.6-1,3.24,3.24,0,0,1,2.5.94,3.77,3.77,0,0,1,.88,2.67A4.68,4.68,0,0,1,117,47.18Zm-4.45-2.55a2,2,0,0,0-.52,1.2h3.26a2,2,0,0,0-.53-1.19,1.47,1.47,0,0,0-1.09-.42A1.54,1.54,0,0,0,112.59,44.63Z" style="fill:#fff"/><path d="M119,48.75l1.12-1.15a1.66,1.66,0,0,0,.81.84,2.94,2.94,0,0,0,1.29.25,2.18,2.18,0,0,0,1-.17.5.5,0,0,0,.34-.46c0-.16-.1-.29-.31-.41a4.43,4.43,0,0,0-1.09-.32,5.37,5.37,0,0,1-2.26-.85,1.73,1.73,0,0,1-.65-1.42,1.88,1.88,0,0,1,.36-1.1,2.52,2.52,0,0,1,1.08-.84,4.42,4.42,0,0,1,1.71-.31,4.29,4.29,0,0,1,1.9.36,3,3,0,0,1,1.22,1.12l-1.19,1a2,2,0,0,0-.76-.82,2.24,2.24,0,0,0-1.14-.27,1.85,1.85,0,0,0-.92.2.55.55,0,0,0-.34.47.56.56,0,0,0,.33.49,4.53,4.53,0,0,0,1.19.37,5.38,5.38,0,0,1,2.17.8,1.66,1.66,0,0,1,.63,1.38,1.82,1.82,0,0,1-.83,1.57,4,4,0,0,1-2.36.6A3.66,3.66,0,0,1,119,48.75Z" style="fill:#fff"/><path d="M16.64,68v-1.9h3.52V61.43a1,1,0,0,0-1-1h-.14A3.46,3.46,0,0,1,15.59,57V47.74a5.57,5.57,0,0,1,1.55-3.86l.37-.36.14-8.18-6.4,6.41.9.9a5.28,5.28,0,0,1-7.46,7.46l-.9-.9L2.14,50.85.8,49.51l1.64-1.64-.9-.9A5.28,5.28,0,1,1,9,39.51l.9.89,3.88-3.88L10.9,33.68,10.6,33V22.07a5.14,5.14,0,0,1,5-5.43h5.67l-1.89-5.32c-.73-.27-2.92-1.14-2.92-3.53a6.67,6.67,0,0,1,1.34-3.43A8,8,0,0,0,19.44.21L21.34,0,22.7,6h4.82l1.36-6,1.9.21a7.84,7.84,0,0,0,1.56,4.11,6.72,6.72,0,0,1,1.37,3.47,3.75,3.75,0,0,1-2.86,3.46l-2,5.39h4.72l4-4L48.32,2l1.34,1.34-1.8,1.8a3,3,0,0,0,0,4.3,3,3,0,0,0,4.23.07l1.34,1.35L44.7,19.58l-1.35-1.34A3,3,0,0,0,43.28,14a3,3,0,0,0-2.15-.89A3,3,0,0,0,39,14l-2.82,2.82.17.05A5,5,0,0,1,40,21.68V32.14l-1.25.94-4.37-1-1.42,1.35,0,3.72,3.39,2.84A7.92,7.92,0,0,1,39.17,46v8.17l.08,0a3.23,3.23,0,0,1,2.56,3.14V67l-1,.95H31.11v-1.9h3.37V61.43a1,1,0,0,0-1-1h-.14A3.46,3.46,0,0,1,29.91,57V51.36a1,1,0,0,0-1-1H27.69a14.79,14.79,0,0,1-2.87-.27l-.12,0v4.11l.08,0a3.22,3.22,0,0,1,2.55,3.14V67l-1,1Zm2.8-24c1.45,3,4.22,4.47,8.25,4.47h1.24a2.87,2.87,0,0,1,2.88,2.87V57a1.56,1.56,0,0,0,1.56,1.56h.14a2.88,2.88,0,0,1,2.87,2.88v4.66h3.53V57.37a1.32,1.32,0,0,0-1.32-1.31h-.37l-1-1,0-9a6,6,0,0,0-2.18-4.63L32,38.88l-2.93,3-.72.28H23.11l-.71-.31-2.89-2.94Zm-1.38,1.75a3.62,3.62,0,0,0-.57,2V57a1.56,1.56,0,0,0,1.56,1.56h.14a2.87,2.87,0,0,1,2.87,2.88v4.66h3.37V57.37a1.31,1.31,0,0,0-1.31-1.31h-.37l-1-1,0-5.49-.06,0a9.12,9.12,0,0,1-4.52-3.75l-.08-.13ZM5.13,47.87l.9.9A3.38,3.38,0,0,0,10.8,44l-.9-.9Zm.14-8a3.32,3.32,0,0,0-2.38,1,3.37,3.37,0,0,0,0,4.77l.9.9,4.77-4.77-.9-.9A3.34,3.34,0,0,0,5.27,39.86Zm14.34-6.47-.07,2.78,3.93,4,4.52,0,3-3L31,33l.3-.71.82-.8-8.63-2ZM15.48,18.56a3.23,3.23,0,0,0-3,3.51v10.5l2.62,2.61L17.28,33l-1.41-1.39-.29-.71V18.55Zm2,12,1.14,1.16L31.76,18.54H28.23l0,.08-1,.65-4.34,0L22,18.57l-4.49,0ZM35,30.22l3.11.72V21.68a3.14,3.14,0,0,0-3-3.12H35Zm-9.89-2.31,8,1.87,0-9.89ZM20.16,4.2c-.22.4-.45.78-.67,1.13a5.29,5.29,0,0,0-1.08,2.46c0,1.38,1.68,1.7,1.87,1.73l.79.67,2.52,7.16h3l2.55-7.21L30,9.5c.15,0,1.83-.33,1.83-1.71a5.22,5.22,0,0,0-1.06-2.43c-.25-.38-.47-.76-.69-1.16L29.93,4,29.2,7.14l-1,.75-6.28,0-1-.79L20.29,4Zm21.58,7.05.19,0A5,5,0,0,1,46,15.36l0,.2,3.37-3.37-.2,0a4.93,4.93,0,0,1-4.08-4.08l0-.19Z" style="fill:#fff"/></g></svg>